<svg width="22" height="18" viewBox="0 0 22 18" fill="none" xmlns="http://www.w3.org/2000/svg">
<path fill-rule="evenodd" clip-rule="evenodd" d="M0 9C0 8.44772 0.447715 8 1 8H21C21.5523 8 22 8.44772 22 9C22 9.55228 21.5523 10 21 10H1C0.447715 10 0 9.55228 0 9Z" fill="#1E1E1E"/>
<path fill-rule="evenodd" clip-rule="evenodd" d="M0 1C0 0.447715 0.447715 0 1 0H21C21.5523 0 22 0.447715 22 1C22 1.55228 21.5523 2 21 2H1C0.447715 2 0 1.55228 0 1Z" fill="#1E1E1E"/>
<path fill-rule="evenodd" clip-rule="evenodd" d="M8 17C8 16.4477 8.44772 16 9 16L21 16C21.5523 16 22 16.4477 22 17C22 17.5523 21.5523 18 21 18L9 18C8.44772 18 8 17.5523 8 17Z" fill="#1E1E1E"/>
</svg>
